<svg height="512" viewBox="0 0 64 64" width="512" xmlns="http://www.w3.org/2000/svg"><g id="Cloud_service" data-name="Cloud service"><path d="m14 41s36.67-.02 37-.05a10.993 10.993 0 0 0 2.95-21.21 5.969 5.969 0 0 0 -5.95-6.74 5.835 5.835 0 0 0 -2.44.52 14 14 0 0 0 -27.12 0 5.835 5.835 0 0 0 -2.44-.52 5.969 5.969 0 0 0 -5.95 6.74 11 11 0 0 0 3.95 21.26z" fill="#96c8ef"/><path d="m53.95 19.74a5.983 5.983 0 0 0 -7.45-6.54 5.952 5.952 0 0 1 4.45 6.54 10.993 10.993 0 0 1 -2.95 21.21c-.273.025 2.67.03 3 0a10.993 10.993 0 0 0 2.95-21.21z" fill="#78b9eb"/><path d="m42.56 13.52a5.835 5.835 0 0 1 2.44-.52c.138 0 .274.012.41.021a13.888 13.888 0 0 0 -14.91-9.932 14 14 0 0 1 12.06 10.431z" fill="#78b9eb"/><path d="m50 38v6h-4.32a13.969 13.969 0 0 1 -1.89 4.55l3.06 3.06-4.24 4.24-3.06-3.06a13.969 13.969 0 0 1 -4.55 1.89v4.32h-6v-4.32a13.969 13.969 0 0 1 -4.55-1.89l-3.06 3.06-4.24-4.24 3.06-3.06a13.969 13.969 0 0 1 -1.89-4.55h-4.32v-6h4.32a13.969 13.969 0 0 1 1.89-4.55l-3.06-3.06 4.24-4.24 3.06 3.06a13.969 13.969 0 0 1 4.55-1.89v-4.32h6v4.32a13.969 13.969 0 0 1 4.55 1.89l3.06-3.06 4.24 4.24-3.06 3.06a13.969 13.969 0 0 1 1.89 4.55z" fill="#ffcd00"/><circle cx="32" cy="41" fill="#005ece" r="9"/><circle cx="32" cy="41" fill="#f1f2f2" r="4"/></g></svg>